<?xml version="1.0" encoding="utf-8"?>
<!-- Generator: Adobe Illustrator 18.1.1, SVG Export Plug-In . SVG Version: 6.00 Build 0)  -->
<svg version="1.1" id="Layer_1" xmlns="http://www.w3.org/2000/svg" xmlns:xlink="http://www.w3.org/1999/xlink" x="0px" y="0px"
	 viewBox="0 0 500 500" enable-background="new 0 0 500 500" xml:space="preserve">
<g>
	<polygon fill="#51A9C6" points="471.9,500 471.9,500 460,476.9 483.9,476.9 	"/>
	<line fill="none" stroke="#51A9C6" stroke-width="4" stroke-miterlimit="10" x1="472.1" y1="286" x2="471.9" y2="481"/>
</g>
<g>
	<polygon fill="#51A9C6" points="397.9,500 397.9,500 386,476.9 409.9,476.9 	"/>
	<line fill="none" stroke="#51A9C6" stroke-width="4" stroke-miterlimit="10" x1="398.1" y1="286" x2="397.9" y2="481"/>
</g>
<polygon fill="#51A9C6" points="249,500 249,500 237.1,476.9 260.9,476.9 "/>
<line fill="none" stroke="#51A9C6" stroke-width="4" stroke-miterlimit="10" x1="249" y1="286" x2="249" y2="481"/>
<g>
	<polygon fill="#51A9C6" points="176,500 176,500 164.1,476.9 187.9,476.9 	"/>
	<line fill="none" stroke="#51A9C6" stroke-width="4" stroke-miterlimit="10" x1="176" y1="286" x2="176" y2="481"/>
</g>
<polygon fill="#51A9C6" points="323,0 323,0 334.9,23.1 311.1,23.1 "/>
<line fill="none" stroke="#51A9C6" stroke-width="4" stroke-miterlimit="10" x1="323" y1="214" x2="323" y2="19"/>
<polygon fill="#51A9C6" points="101,0 101,0 112.9,23.1 89.1,23.1 "/>
<line fill="none" stroke="#51A9C6" stroke-width="4" stroke-miterlimit="10" x1="101" y1="214" x2="101" y2="19"/>
<polygon fill="#51A9C6" points="25,0 25,0 36.9,23.1 13.1,23.1 "/>
<line fill="none" stroke="#51A9C6" stroke-width="4" stroke-miterlimit="10" x1="25" y1="214" x2="25" y2="19"/>
<ellipse fill="#51A9C6" cx="26.6" cy="249.9" rx="25.6" ry="25.8"/>
<ellipse fill="#51A9C6" cx="100.8" cy="249.9" rx="25.6" ry="25.8"/>
<ellipse fill="#51A9C6" cx="175.1" cy="249.9" rx="25.6" ry="25.8"/>
<ellipse fill="#51A9C6" cx="249.2" cy="249.9" rx="25.6" ry="25.8"/>
<ellipse fill="#51A9C6" cx="323.4" cy="249.9" rx="25.6" ry="25.8"/>
<ellipse fill="#51A9C6" cx="397.5" cy="249.9" rx="25.6" ry="25.8"/>
<ellipse fill="#51A9C6" cx="471.9" cy="249.9" rx="25.6" ry="25.8"/>
</svg>
