<?xml version="1.0" encoding="utf-8"?>
<!-- Generator: Adobe Illustrator 18.1.1, SVG Export Plug-In . SVG Version: 6.00 Build 0)  -->
<svg version="1.1" id="Layer_1" xmlns="http://www.w3.org/2000/svg" xmlns:xlink="http://www.w3.org/1999/xlink" x="0px" y="0px"
	 viewBox="0 0 500 500" enable-background="new 0 0 500 500" xml:space="preserve">
<ellipse fill="#51A9C6" cx="420.7" cy="472.9" rx="18.6" ry="18.8"/>
<ellipse fill="#51A9C6" cx="383.4" cy="445.3" rx="18.6" ry="18.8"/>
<ellipse fill="#51A9C6" cx="346.1" cy="407.7" rx="18.6" ry="18.8"/>
<ellipse fill="#51A9C6" cx="308.8" cy="370.1" rx="18.6" ry="18.8"/>
<ellipse fill="#51A9C6" cx="276.2" cy="332.5" rx="18.6" ry="18.8"/>
<ellipse fill="#51A9C6" cx="250" cy="288.9" rx="18.6" ry="18.8"/>
<ellipse opacity="0.5" fill="#51A9C6" cx="196.8" cy="198" rx="18.6" ry="18.8"/>
<ellipse opacity="0.5" fill="#51A9C6" cx="165.6" cy="151.9" rx="18.6" ry="18.8"/>
<ellipse opacity="0.5" fill="#51A9C6" cx="128.4" cy="108" rx="18.6" ry="18.8"/>
<ellipse opacity="0.5" fill="#51A9C6" cx="80" cy="80.4" rx="18.6" ry="18.8"/>
<ellipse opacity="0.5" fill="#51A9C6" cx="27.6" cy="99.2" rx="18.6" ry="18.8"/>
<ellipse fill="#51A9C6" cx="19.6" cy="242.9" rx="18.6" ry="18.8"/>
<ellipse fill="#51A9C6" cx="70.9" cy="242.9" rx="18.6" ry="18.8"/>
<ellipse fill="#51A9C6" cx="122.2" cy="242.9" rx="18.6" ry="18.8"/>
<ellipse fill="#51A9C6" cx="173.5" cy="242.9" rx="18.6" ry="18.8"/>
<ellipse opacity="0.5" fill="#51A9C6" cx="224.8" cy="242.9" rx="18.6" ry="18.8"/>
<ellipse opacity="0.5" fill="#51A9C6" cx="276.2" cy="242.9" rx="18.6" ry="18.8"/>
<ellipse opacity="0.5" fill="#51A9C6" cx="481.4" cy="242.9" rx="18.6" ry="18.8"/>
<ellipse opacity="0.5" fill="#51A9C6" cx="430.1" cy="242.9" rx="18.6" ry="18.8"/>
<ellipse opacity="0.5" fill="#51A9C6" cx="378.8" cy="242.9" rx="18.6" ry="18.8"/>
<ellipse opacity="0.5" fill="#51A9C6" cx="327.5" cy="242.9" rx="18.6" ry="18.8"/>
</svg>
