<?xml version="1.0" encoding="utf-8"?>
<!-- Generator: Adobe Illustrator 18.1.1, SVG Export Plug-In . SVG Version: 6.00 Build 0)  -->
<svg version="1.1" id="Layer_1" xmlns="http://www.w3.org/2000/svg" xmlns:xlink="http://www.w3.org/1999/xlink" x="0px" y="0px"
	 viewBox="0 0 500 500" enable-background="new 0 0 500 500" xml:space="preserve">
<path fill="#51A9C6" d="M499.4,0c-24.2,8.6-48.9,16.2-72.3,25.9C369.4,49.8,337.6,91,319,140.5c-1.6,4.2-3,8.6-4.5,12.8
	c-5.6,15.6-6.5,30.2,5.6,44.9c13.5,16.5,11.6,28.4-4,43.7c-9.8,9.7-20.2,19-30.7,28.2c-16.5,14.6-15.2,25.6,4.7,36.9
	c2,1.1,3.9,2.3,7.1,4.3c-3.9,4.1-7.1,7.9-10.8,11.3c-6.8,6.2-7.4,12.6,0.7,17.6c6.7,4.1,7.3,7.9,1.9,12.4
	c-10.2,8.6-8.1,15.9,2.2,23.5c6.7,4.9,8.8,11.3,4.7,18.6c-15,27.1,1.2,43.2,23,53.2c14.3,6.5,31.4,9.6,47.7,12.2
	c20.4,3.3,41.4,4.9,57.7,16.4c8.3,5.8,13.7,14.4,20.5,21.7c-1,0.8-1.9,1.6-2.9,2.4c-128.7,0-257.4,0-387,0
	c2.9-14.6,13.3-24.8,28.7-29.8c15.5-5,32.3-8.3,48.8-10.3c22.2-2.7,42.4-7.9,59.2-20.7c15-11.4,20-26.6,11.6-41.9
	c-5.5-10.1-3.8-17.4,6-24.5c8.6-6.2,7.8-13,0.4-19.6c-5.6-5-7.4-9,1-14.1c8.3-5,7.2-11.6,0.3-17.7c-3.6-3.2-6.8-6.6-9.3-9.1
	c6.6-6,12.8-10.9,17.9-16.5c6.5-7.2,5.9-14.6-1.6-21.4C206.7,265,194.7,255,184.2,244c-20.3-21-19.7-31.9-6-46.9
	c10.5-11.5,10.8-23.9,6.8-37.9c-9.7-34.2-25.8-65.8-52.7-92.9C102.1,35.8,61,18.5,16.7,5.9C10.5,4.1,4.5,2-1.7,0
	C165.4,0,332.4,0,499.4,0z"/>
</svg>
