<?xml version="1.0" encoding="utf-8"?>
<!-- Generator: Adobe Illustrator 18.1.1, SVG Export Plug-In . SVG Version: 6.00 Build 0)  -->
<svg version="1.1" id="Layer_1" xmlns="http://www.w3.org/2000/svg" xmlns:xlink="http://www.w3.org/1999/xlink" x="0px" y="0px"
	 viewBox="0 0 1000 500" enable-background="new 0 0 1000 500" xml:space="preserve">
<rect fill="#F2F2F2" width="1000" height="500"/>
<circle opacity="0.8" fill="#51A9C6" cx="918.8" cy="443.4" r="17.7"/>
<circle opacity="0.8" fill="#51A9C6" cx="865.5" cy="337.1" r="17.7"/>
<circle opacity="0.8" fill="#51A9C6" cx="972.1" cy="337.1" r="17.7"/>
<polygon opacity="0.8" fill="#F2F2F2" points="918.8,445.7 918.8,445.7 865.5,337.1 972.1,337.1 "/>
<g opacity="0.8">
	<g>
		<polygon fill="#51A9C6" points="454.2,220 454.2,220 449.6,211 458.9,211 		"/>
		<line fill="none" stroke="#51A9C6" stroke-width="4" stroke-miterlimit="10" x1="454.3" y1="137" x2="454.2" y2="212.6"/>
	</g>
	<g>
		<polygon fill="#51A9C6" points="425.5,220 425.5,220 420.9,211 430.2,211 		"/>
		<line fill="none" stroke="#51A9C6" stroke-width="4" stroke-miterlimit="10" x1="425.6" y1="137" x2="425.5" y2="212.6"/>
	</g>
	<polygon fill="#51A9C6" points="367.8,220 367.8,220 363.2,211 372.4,211 	"/>
	<line fill="none" stroke="#51A9C6" stroke-width="4" stroke-miterlimit="10" x1="367.8" y1="137" x2="367.8" y2="212.6"/>
	<g>
		<polygon fill="#51A9C6" points="339.5,220 339.5,220 334.9,211 344.1,211 		"/>
		<line fill="none" stroke="#51A9C6" stroke-width="4" stroke-miterlimit="10" x1="339.5" y1="137" x2="339.5" y2="212.6"/>
	</g>
	<polygon fill="#51A9C6" points="396.5,26.1 396.5,26.1 401.1,35.1 391.9,35.1 	"/>
	<line fill="none" stroke="#51A9C6" stroke-width="4" stroke-miterlimit="10" x1="396.5" y1="109.1" x2="396.5" y2="33.5"/>
	<polygon fill="#51A9C6" points="310.4,26.1 310.4,26.1 315,35.1 305.8,35.1 	"/>
	<line fill="none" stroke="#51A9C6" stroke-width="4" stroke-miterlimit="10" x1="310.4" y1="109.1" x2="310.4" y2="33.5"/>
	<polygon fill="#51A9C6" points="280.9,26.1 280.9,26.1 285.5,35.1 276.3,35.1 	"/>
	<line fill="none" stroke="#51A9C6" stroke-width="4" stroke-miterlimit="10" x1="280.9" y1="109.1" x2="280.9" y2="33.5"/>
	<ellipse fill="#51A9C6" cx="281.5" cy="123" rx="9.9" ry="10"/>
	<ellipse fill="#51A9C6" cx="310.3" cy="123" rx="9.9" ry="10"/>
	<ellipse fill="#51A9C6" cx="339.1" cy="123" rx="9.9" ry="10"/>
	<ellipse fill="#51A9C6" cx="367.8" cy="123" rx="9.9" ry="10"/>
	<ellipse fill="#51A9C6" cx="396.6" cy="123" rx="9.9" ry="10"/>
	<ellipse fill="#51A9C6" cx="425.4" cy="123" rx="9.9" ry="10"/>
	<ellipse fill="#51A9C6" cx="454.2" cy="123" rx="9.9" ry="10"/>
</g>
<g opacity="0.8">
	<ellipse fill="#51A9C6" cx="402.2" cy="466.4" rx="8.1" ry="8.2"/>
	<ellipse fill="#51A9C6" cx="385.9" cy="454.4" rx="8.1" ry="8.2"/>
	<ellipse fill="#51A9C6" cx="369.6" cy="438" rx="8.1" ry="8.2"/>
	<ellipse fill="#51A9C6" cx="353.4" cy="421.5" rx="8.1" ry="8.2"/>
	<ellipse fill="#51A9C6" cx="339.1" cy="405.1" rx="8.1" ry="8.2"/>
	<ellipse fill="#51A9C6" cx="327.7" cy="386.1" rx="8.1" ry="8.2"/>
	<ellipse opacity="0.5" fill="#51A9C6" enable-background="new    " cx="304.4" cy="346.4" rx="8.1" ry="8.2"/>
	<ellipse opacity="0.5" fill="#51A9C6" enable-background="new    " cx="290.8" cy="326.2" rx="8.1" ry="8.2"/>
	<ellipse opacity="0.5" fill="#51A9C6" enable-background="new    " cx="274.6" cy="307.1" rx="8.1" ry="8.2"/>
	<ellipse opacity="0.5" fill="#51A9C6" enable-background="new    " cx="253.4" cy="295" rx="8.1" ry="8.2"/>
	<ellipse opacity="0.5" fill="#51A9C6" enable-background="new    " cx="230.5" cy="303.2" rx="8.1" ry="8.2"/>
	<ellipse fill="#51A9C6" cx="227" cy="366" rx="8.1" ry="8.2"/>
	<ellipse fill="#51A9C6" cx="249.4" cy="366" rx="8.1" ry="8.2"/>
	<ellipse fill="#51A9C6" cx="271.9" cy="366" rx="8.1" ry="8.2"/>
	<ellipse fill="#51A9C6" cx="294.3" cy="366" rx="8.1" ry="8.2"/>
	<ellipse opacity="0.5" fill="#51A9C6" enable-background="new    " cx="316.7" cy="366" rx="8.1" ry="8.2"/>
	<ellipse opacity="0.5" fill="#51A9C6" enable-background="new    " cx="339.1" cy="366" rx="8.1" ry="8.2"/>
	<ellipse opacity="0.5" fill="#51A9C6" enable-background="new    " cx="428.7" cy="366" rx="8.1" ry="8.2"/>
	<ellipse opacity="0.5" fill="#51A9C6" enable-background="new    " cx="406.3" cy="366" rx="8.1" ry="8.2"/>
	<ellipse opacity="0.5" fill="#51A9C6" enable-background="new    " cx="383.9" cy="366" rx="8.1" ry="8.2"/>
	<ellipse opacity="0.5" fill="#51A9C6" enable-background="new    " cx="361.5" cy="366" rx="8.1" ry="8.2"/>
</g>
<g opacity="0.8">
	<path fill="#51A9C6" d="M608.7,291.2c-9.1,3.2-18.4,6.1-27.3,9.8c-21.8,9-33.8,24.6-40.8,43.2c-0.6,1.6-1.1,3.2-1.7,4.8
		c-2.1,5.9-2.5,11.4,2.1,16.9c5.1,6.2,4.4,10.7-1.5,16.5c-3.7,3.7-7.6,7.2-11.6,10.6c-6.2,5.5-5.7,9.7,1.8,13.9
		c0.8,0.4,1.5,0.9,2.7,1.6c-1.5,1.5-2.7,3-4.1,4.3c-2.6,2.3-2.8,4.8,0.3,6.6c2.5,1.5,2.8,3,0.7,4.7c-3.8,3.2-3.1,6,0.8,8.9
		c2.5,1.8,3.3,4.3,1.8,7c-5.7,10.2,0.5,16.3,8.7,20.1c5.4,2.5,11.8,3.6,18,4.6c7.7,1.2,15.6,1.8,21.8,6.2c3.1,2.2,5.2,5.4,7.7,8.2
		c-0.4,0.3-0.7,0.6-1.1,0.9c-48.5,0-97.1,0-146,0c1.1-5.5,5-9.4,10.8-11.2c5.8-1.9,12.2-3.1,18.4-3.9c8.4-1,16-3,22.3-7.8
		c5.7-4.3,7.5-10,4.4-15.8c-2.1-3.8-1.4-6.6,2.3-9.2c3.2-2.3,2.9-4.9,0.2-7.4c-2.1-1.9-2.8-3.4,0.4-5.3c3.1-1.9,2.7-4.4,0.1-6.7
		c-1.4-1.2-2.6-2.5-3.5-3.4c2.5-2.3,4.8-4.1,6.8-6.2c2.5-2.7,2.2-5.5-0.6-8.1c-4.2-3.8-8.8-7.5-12.7-11.7c-7.7-7.9-7.4-12-2.3-17.7
		c4-4.3,4.1-9,2.6-14.3c-3.7-12.9-9.7-24.8-19.9-35c-11.4-11.5-26.9-18-43.6-22.8c-2.3-0.7-4.6-1.5-6.9-2.2
		C482.7,291.2,545.7,291.2,608.7,291.2z"/>
</g>
<g opacity="0.8">
	<rect x="12" y="301.6" fill="#51A9C6" width="118.8" height="125.4"/>
	<ellipse fill="#51A9C6" cx="161.1" cy="332.9" rx="46.1" ry="48.7"/>
	<polygon fill="#51A9C6" points="130.6,325.5 154.3,376.1 207.2,384.2 168.9,423.6 177.9,479.2 130.6,452.9 83.3,479.2 92.4,423.6 
		54.1,384.2 107,376.1 	"/>
</g>
<g opacity="0.8">
	<polygon fill="#51A9C6" points="984.6,87.6 789.1,87.6 886.9,25.5 886.9,25.5 	"/>
	<rect x="818.8" y="83.3" fill="#51A9C6" width="137.3" height="137.3"/>
</g>
<g opacity="0.8">
	<ellipse fill="#51A9C6" cx="627.7" cy="211.6" rx="10.6" ry="10.7"/>
	<ellipse fill="#51A9C6" cx="658.5" cy="211.6" rx="10.6" ry="10.7"/>
	<ellipse fill="#51A9C6" cx="689.3" cy="211.6" rx="10.6" ry="10.7"/>
	<ellipse fill="#51A9C6" cx="720.1" cy="211.6" rx="10.6" ry="10.7"/>
	<ellipse fill="#51A9C6" cx="534.7" cy="34.5" rx="10.6" ry="10.7"/>
	<ellipse fill="#51A9C6" cx="565.4" cy="34.5" rx="10.6" ry="10.7"/>
	<ellipse fill="#51A9C6" cx="596.3" cy="34.5" rx="10.6" ry="10.7"/>
	<ellipse fill="#51A9C6" cx="627" cy="34.5" rx="10.6" ry="10.7"/>
	<ellipse fill="#51A9C6" cx="534.7" cy="61.1" rx="10.6" ry="10.7"/>
	<ellipse fill="#51A9C6" cx="565.4" cy="61.1" rx="10.6" ry="10.7"/>
	<ellipse fill="#51A9C6" cx="596.3" cy="61.1" rx="10.6" ry="10.7"/>
	<ellipse fill="#51A9C6" cx="627" cy="61.1" rx="10.6" ry="10.7"/>
	<ellipse fill="#51A9C6" cx="535.1" cy="171" rx="10.6" ry="10.7"/>
	<ellipse fill="#51A9C6" cx="565.9" cy="171" rx="10.6" ry="10.7"/>
	<ellipse fill="#51A9C6" cx="596.7" cy="171" rx="10.6" ry="10.7"/>
	<ellipse fill="#51A9C6" cx="627.4" cy="171" rx="10.6" ry="10.7"/>
	<ellipse fill="#51A9C6" cx="658.2" cy="171" rx="10.6" ry="10.7"/>
	<ellipse fill="#51A9C6" cx="688.9" cy="171" rx="10.6" ry="10.7"/>
	<ellipse fill="#51A9C6" cx="719.8" cy="171" rx="10.6" ry="10.7"/>
	<ellipse fill="#51A9C6" cx="535.4" cy="146.3" rx="10.6" ry="10.7"/>
	<ellipse fill="#51A9C6" cx="566.1" cy="146.3" rx="10.6" ry="10.7"/>
	<ellipse fill="#51A9C6" cx="597" cy="146.3" rx="10.6" ry="10.7"/>
	<ellipse fill="#51A9C6" cx="627.7" cy="146.3" rx="10.6" ry="10.7"/>
	<ellipse fill="#51A9C6" cx="658.5" cy="146.3" rx="10.6" ry="10.7"/>
	<ellipse fill="#51A9C6" cx="689.2" cy="146.3" rx="10.6" ry="10.7"/>
	<ellipse fill="#51A9C6" cx="720.1" cy="146.3" rx="10.6" ry="10.7"/>
	<ellipse fill="#51A9C6" cx="535.1" cy="118.7" rx="10.6" ry="10.7"/>
	<ellipse fill="#51A9C6" cx="565.9" cy="118.7" rx="10.6" ry="10.7"/>
	<ellipse fill="#51A9C6" cx="596.7" cy="118.7" rx="10.6" ry="10.7"/>
	<ellipse fill="#51A9C6" cx="627.4" cy="118.7" rx="10.6" ry="10.7"/>
	<ellipse fill="#51A9C6" cx="658.2" cy="118.7" rx="10.6" ry="10.7"/>
	<ellipse fill="#51A9C6" cx="688.9" cy="118.7" rx="10.6" ry="10.7"/>
	<ellipse fill="#51A9C6" cx="719.8" cy="118.7" rx="10.6" ry="10.7"/>
</g>
<g opacity="0.8">
	<rect x="755.2" y="380.5" fill="#51A9C6" width="19.6" height="19.6"/>
	<rect x="687.9" y="349" fill="#51A9C6" width="19.6" height="19.6"/>
	<rect x="754.8" y="462.5" fill="#51A9C6" width="19.6" height="19.6"/>
	<rect x="754.8" y="434.1" fill="#51A9C6" width="19.6" height="19.6"/>
	<rect x="754.8" y="405.7" fill="#51A9C6" width="19.6" height="19.6"/>
	<rect x="719.8" y="349" fill="#51A9C6" width="19.6" height="19.6"/>
	<rect x="754.8" y="349" fill="#51A9C6" width="19.6" height="19.6"/>
	<rect x="754.8" y="320.6" fill="#51A9C6" width="19.6" height="19.6"/>
	<rect x="754.8" y="292.2" fill="#51A9C6" width="19.6" height="19.6"/>
	<circle fill="#51A9C6" cx="729.6" cy="472.3" r="9.8"/>
	<circle fill="#51A9C6" cx="729.6" cy="443.9" r="9.8"/>
	<circle fill="#51A9C6" cx="729.6" cy="415.5" r="9.8"/>
	<circle fill="#51A9C6" cx="729.6" cy="387.1" r="9.8"/>
	<circle fill="#51A9C6" cx="729.6" cy="330.5" r="9.8"/>
	<circle fill="#51A9C6" cx="729.6" cy="302" r="9.8"/>
	<circle fill="#51A9C6" cx="697.7" cy="472.3" r="9.8"/>
	<circle fill="#51A9C6" cx="697.7" cy="443.9" r="9.8"/>
	<circle fill="#51A9C6" cx="697.7" cy="415.5" r="9.8"/>
	<circle fill="#51A9C6" cx="697.7" cy="387.1" r="9.8"/>
	<circle fill="#51A9C6" cx="697.7" cy="330.5" r="9.8"/>
	<circle fill="#51A9C6" cx="697.7" cy="302" r="9.8"/>
	<circle fill="#51A9C6" cx="797.8" cy="472.3" r="9.8"/>
	<circle fill="#51A9C6" cx="797.8" cy="443.9" r="9.8"/>
	<circle fill="#51A9C6" cx="797.8" cy="415.5" r="9.8"/>
	<circle fill="#51A9C6" cx="797.8" cy="387.1" r="9.8"/>
	<circle fill="#51A9C6" cx="797.8" cy="358.8" r="9.8"/>
	<circle fill="#51A9C6" cx="797.8" cy="330.5" r="9.8"/>
	<circle fill="#51A9C6" cx="797.8" cy="302" r="9.8"/>
	<circle fill="#51A9C6" cx="665.5" cy="472.3" r="9.8"/>
	<circle fill="#51A9C6" cx="665.5" cy="443.9" r="9.8"/>
	<circle fill="#51A9C6" cx="665.5" cy="415.5" r="9.8"/>
	<circle fill="#51A9C6" cx="665.5" cy="387.1" r="9.8"/>
	<circle fill="#51A9C6" cx="665.5" cy="358.8" r="9.8"/>
	<circle fill="#51A9C6" cx="665.5" cy="330.5" r="9.8"/>
	<circle fill="#51A9C6" cx="665.5" cy="302" r="9.8"/>
	<circle fill="#51A9C6" cx="635.2" cy="472.3" r="9.8"/>
	<circle fill="#51A9C6" cx="635.2" cy="443.9" r="9.8"/>
	<circle fill="#51A9C6" cx="635.2" cy="415.5" r="9.8"/>
	<circle fill="#51A9C6" cx="635.2" cy="387.1" r="9.8"/>
	<circle fill="#51A9C6" cx="635.2" cy="358.8" r="9.8"/>
	<circle fill="#51A9C6" cx="635.2" cy="330.5" r="9.8"/>
	<circle fill="#51A9C6" cx="635.2" cy="302" r="9.8"/>
</g>
<g opacity="0.8">
	<g>
		<g>
			<g>
				<line fill="none" stroke="#51A9C6" stroke-width="4" stroke-miterlimit="10" x1="133.4" y1="208.1" x2="118" y2="208.1"/>
				<line fill="none" stroke="#51A9C6" stroke-width="4" stroke-miterlimit="10" x1="133.7" y1="167" x2="133.7" y2="209.9"/>
				<line fill="none" stroke="#51A9C6" stroke-width="4" stroke-miterlimit="10" x1="118" y1="168.8" x2="133.4" y2="168.8"/>
			</g>
			<g>
				<line fill="none" stroke="#51A9C6" stroke-width="4" stroke-miterlimit="10" x1="133.4" y1="140.2" x2="118" y2="140.2"/>
				<line fill="none" stroke="#51A9C6" stroke-width="4" stroke-miterlimit="10" x1="133.7" y1="99.2" x2="133.7" y2="142"/>
				<line fill="none" stroke="#51A9C6" stroke-width="4" stroke-miterlimit="10" x1="118" y1="101" x2="133.4" y2="101"/>
			</g>
			<g>
				<line fill="none" stroke="#51A9C6" stroke-width="4" stroke-miterlimit="10" x1="133.4" y1="72.4" x2="118" y2="72.4"/>
				<line fill="none" stroke="#51A9C6" stroke-width="4" stroke-miterlimit="10" x1="133.7" y1="31.3" x2="133.7" y2="74.2"/>
				<line fill="none" stroke="#51A9C6" stroke-width="4" stroke-miterlimit="10" x1="118" y1="33.1" x2="133.4" y2="33.1"/>
			</g>
		</g>
		<g>
			<g>
				<line fill="none" stroke="#51A9C6" stroke-width="4" stroke-miterlimit="10" x1="83.4" y1="208.1" x2="98.7" y2="208.1"/>
				<line fill="none" stroke="#51A9C6" stroke-width="4" stroke-miterlimit="10" x1="83" y1="167" x2="83" y2="209.9"/>
				<line fill="none" stroke="#51A9C6" stroke-width="4" stroke-miterlimit="10" x1="98.7" y1="168.8" x2="83.4" y2="168.8"/>
			</g>
			<g>
				<line fill="none" stroke="#51A9C6" stroke-width="4" stroke-miterlimit="10" x1="83.4" y1="140.2" x2="98.7" y2="140.2"/>
				<line fill="none" stroke="#51A9C6" stroke-width="4" stroke-miterlimit="10" x1="83" y1="99.2" x2="83" y2="142"/>
				<line fill="none" stroke="#51A9C6" stroke-width="4" stroke-miterlimit="10" x1="98.7" y1="101" x2="83.4" y2="101"/>
			</g>
			<g>
				<line fill="none" stroke="#51A9C6" stroke-width="4" stroke-miterlimit="10" x1="83.4" y1="72.4" x2="98.7" y2="72.4"/>
				<line fill="none" stroke="#51A9C6" stroke-width="4" stroke-miterlimit="10" x1="83" y1="31.3" x2="83" y2="74.2"/>
				<line fill="none" stroke="#51A9C6" stroke-width="4" stroke-miterlimit="10" x1="98.7" y1="33.1" x2="83.4" y2="33.1"/>
			</g>
		</g>
	</g>
	<g>
		<g>
			<g>
				<line fill="none" stroke="#51A9C6" stroke-width="4" stroke-miterlimit="10" x1="195.5" y1="208.1" x2="180.1" y2="208.1"/>
				<line fill="none" stroke="#51A9C6" stroke-width="4" stroke-miterlimit="10" x1="195.9" y1="167" x2="195.9" y2="209.9"/>
				<line fill="none" stroke="#51A9C6" stroke-width="4" stroke-miterlimit="10" x1="180.1" y1="168.8" x2="195.5" y2="168.8"/>
			</g>
			<g>
				<line fill="none" stroke="#51A9C6" stroke-width="4" stroke-miterlimit="10" x1="195.5" y1="140.2" x2="180.1" y2="140.2"/>
				<line fill="none" stroke="#51A9C6" stroke-width="4" stroke-miterlimit="10" x1="195.9" y1="99.2" x2="195.9" y2="142"/>
				<line fill="none" stroke="#51A9C6" stroke-width="4" stroke-miterlimit="10" x1="180.1" y1="101" x2="195.5" y2="101"/>
			</g>
			<g>
				<line fill="none" stroke="#51A9C6" stroke-width="4" stroke-miterlimit="10" x1="195.5" y1="72.4" x2="180.1" y2="72.4"/>
				<line fill="none" stroke="#51A9C6" stroke-width="4" stroke-miterlimit="10" x1="195.9" y1="31.3" x2="195.9" y2="74.2"/>
				<line fill="none" stroke="#51A9C6" stroke-width="4" stroke-miterlimit="10" x1="180.1" y1="33.1" x2="195.5" y2="33.1"/>
			</g>
		</g>
		<g>
			<g>
				<line fill="none" stroke="#51A9C6" stroke-width="4" stroke-miterlimit="10" x1="145.5" y1="208.1" x2="160.9" y2="208.1"/>
				<line fill="none" stroke="#51A9C6" stroke-width="4" stroke-miterlimit="10" x1="145.1" y1="167" x2="145.1" y2="209.9"/>
				<line fill="none" stroke="#51A9C6" stroke-width="4" stroke-miterlimit="10" x1="160.9" y1="168.8" x2="145.5" y2="168.8"/>
			</g>
			<g>
				<line fill="none" stroke="#51A9C6" stroke-width="4" stroke-miterlimit="10" x1="145.5" y1="140.2" x2="160.9" y2="140.2"/>
				<line fill="none" stroke="#51A9C6" stroke-width="4" stroke-miterlimit="10" x1="145.1" y1="99.2" x2="145.1" y2="142"/>
				<line fill="none" stroke="#51A9C6" stroke-width="4" stroke-miterlimit="10" x1="160.9" y1="101" x2="145.5" y2="101"/>
			</g>
			<g>
				<line fill="none" stroke="#51A9C6" stroke-width="4" stroke-miterlimit="10" x1="145.5" y1="72.4" x2="160.9" y2="72.4"/>
				<line fill="none" stroke="#51A9C6" stroke-width="4" stroke-miterlimit="10" x1="145.1" y1="31.3" x2="145.1" y2="74.2"/>
				<line fill="none" stroke="#51A9C6" stroke-width="4" stroke-miterlimit="10" x1="160.9" y1="33.1" x2="145.5" y2="33.1"/>
			</g>
		</g>
	</g>
	<g>
		<g>
			<g>
				<line fill="none" stroke="#51A9C6" stroke-width="4" stroke-miterlimit="10" x1="195.5" y1="208.1" x2="180.1" y2="208.1"/>
				<line fill="none" stroke="#51A9C6" stroke-width="4" stroke-miterlimit="10" x1="195.9" y1="167" x2="195.9" y2="209.9"/>
				<line fill="none" stroke="#51A9C6" stroke-width="4" stroke-miterlimit="10" x1="180.1" y1="168.8" x2="195.5" y2="168.8"/>
			</g>
			<g>
				<line fill="none" stroke="#51A9C6" stroke-width="4" stroke-miterlimit="10" x1="195.5" y1="140.2" x2="180.1" y2="140.2"/>
				<line fill="none" stroke="#51A9C6" stroke-width="4" stroke-miterlimit="10" x1="195.9" y1="99.2" x2="195.9" y2="142"/>
				<line fill="none" stroke="#51A9C6" stroke-width="4" stroke-miterlimit="10" x1="180.1" y1="101" x2="195.5" y2="101"/>
			</g>
			<g>
				<line fill="none" stroke="#51A9C6" stroke-width="4" stroke-miterlimit="10" x1="195.5" y1="72.4" x2="180.1" y2="72.4"/>
				<line fill="none" stroke="#51A9C6" stroke-width="4" stroke-miterlimit="10" x1="195.9" y1="31.3" x2="195.9" y2="74.2"/>
				<line fill="none" stroke="#51A9C6" stroke-width="4" stroke-miterlimit="10" x1="180.1" y1="33.1" x2="195.5" y2="33.1"/>
			</g>
		</g>
		<g>
			<g>
				<line fill="none" stroke="#51A9C6" stroke-width="4" stroke-miterlimit="10" x1="145.5" y1="208.1" x2="160.9" y2="208.1"/>
				<line fill="none" stroke="#51A9C6" stroke-width="4" stroke-miterlimit="10" x1="145.1" y1="167" x2="145.1" y2="209.9"/>
				<line fill="none" stroke="#51A9C6" stroke-width="4" stroke-miterlimit="10" x1="160.9" y1="168.8" x2="145.5" y2="168.8"/>
			</g>
			<g>
				<line fill="none" stroke="#51A9C6" stroke-width="4" stroke-miterlimit="10" x1="145.5" y1="140.2" x2="160.9" y2="140.2"/>
				<line fill="none" stroke="#51A9C6" stroke-width="4" stroke-miterlimit="10" x1="145.1" y1="99.2" x2="145.1" y2="142"/>
				<line fill="none" stroke="#51A9C6" stroke-width="4" stroke-miterlimit="10" x1="160.9" y1="101" x2="145.5" y2="101"/>
			</g>
			<g>
				<line fill="none" stroke="#51A9C6" stroke-width="4" stroke-miterlimit="10" x1="145.5" y1="72.4" x2="160.9" y2="72.4"/>
				<line fill="none" stroke="#51A9C6" stroke-width="4" stroke-miterlimit="10" x1="145.1" y1="31.3" x2="145.1" y2="74.2"/>
				<line fill="none" stroke="#51A9C6" stroke-width="4" stroke-miterlimit="10" x1="160.9" y1="33.1" x2="145.5" y2="33.1"/>
			</g>
		</g>
	</g>
	<g>
		<g>
			<g>
				<line fill="none" stroke="#51A9C6" stroke-width="4" stroke-miterlimit="10" x1="71.2" y1="208.1" x2="55.9" y2="208.1"/>
				<line fill="none" stroke="#51A9C6" stroke-width="4" stroke-miterlimit="10" x1="71.6" y1="167" x2="71.6" y2="209.9"/>
				<line fill="none" stroke="#51A9C6" stroke-width="4" stroke-miterlimit="10" x1="55.9" y1="168.8" x2="71.2" y2="168.8"/>
			</g>
			<g>
				<line fill="none" stroke="#51A9C6" stroke-width="4" stroke-miterlimit="10" x1="71.2" y1="140.2" x2="55.9" y2="140.2"/>
				<line fill="none" stroke="#51A9C6" stroke-width="4" stroke-miterlimit="10" x1="71.6" y1="99.2" x2="71.6" y2="142"/>
				<line fill="none" stroke="#51A9C6" stroke-width="4" stroke-miterlimit="10" x1="55.9" y1="101" x2="71.2" y2="101"/>
			</g>
			<g>
				<line fill="none" stroke="#51A9C6" stroke-width="4" stroke-miterlimit="10" x1="71.2" y1="72.4" x2="55.9" y2="72.4"/>
				<line fill="none" stroke="#51A9C6" stroke-width="4" stroke-miterlimit="10" x1="71.6" y1="31.3" x2="71.6" y2="74.2"/>
				<line fill="none" stroke="#51A9C6" stroke-width="4" stroke-miterlimit="10" x1="55.9" y1="33.1" x2="71.2" y2="33.1"/>
			</g>
		</g>
		<g>
			<g>
				<line fill="none" stroke="#51A9C6" stroke-width="4" stroke-miterlimit="10" x1="21.2" y1="208.1" x2="36.6" y2="208.1"/>
				<line fill="none" stroke="#51A9C6" stroke-width="4" stroke-miterlimit="10" x1="20.9" y1="167" x2="20.9" y2="209.9"/>
				<line fill="none" stroke="#51A9C6" stroke-width="4" stroke-miterlimit="10" x1="36.6" y1="168.8" x2="21.2" y2="168.8"/>
			</g>
			<g>
				<line fill="none" stroke="#51A9C6" stroke-width="4" stroke-miterlimit="10" x1="21.2" y1="140.2" x2="36.6" y2="140.2"/>
				<line fill="none" stroke="#51A9C6" stroke-width="4" stroke-miterlimit="10" x1="20.9" y1="99.2" x2="20.9" y2="142"/>
				<line fill="none" stroke="#51A9C6" stroke-width="4" stroke-miterlimit="10" x1="36.6" y1="101" x2="21.2" y2="101"/>
			</g>
			<g>
				<line fill="none" stroke="#51A9C6" stroke-width="4" stroke-miterlimit="10" x1="21.2" y1="72.4" x2="36.6" y2="72.4"/>
				<line fill="none" stroke="#51A9C6" stroke-width="4" stroke-miterlimit="10" x1="20.9" y1="31.3" x2="20.9" y2="74.2"/>
				<line fill="none" stroke="#51A9C6" stroke-width="4" stroke-miterlimit="10" x1="36.6" y1="33.1" x2="21.2" y2="33.1"/>
			</g>
		</g>
	</g>
</g>
</svg>
