<?xml version="1.0" encoding="utf-8"?>
<!-- Generator: Adobe Illustrator 18.1.1, SVG Export Plug-In . SVG Version: 6.00 Build 0)  -->
<svg version="1.1" id="Layer_1" xmlns="http://www.w3.org/2000/svg" xmlns:xlink="http://www.w3.org/1999/xlink" x="0px" y="0px"
	 viewBox="0 0 500 500" enable-background="new 0 0 500 500" xml:space="preserve">
<ellipse fill="#51A9C6" cx="250" cy="473.8" rx="25.6" ry="25.8"/>
<ellipse fill="#51A9C6" cx="324.2" cy="473.8" rx="25.6" ry="25.8"/>
<ellipse fill="#51A9C6" cx="398.5" cy="473.8" rx="25.6" ry="25.8"/>
<ellipse fill="#51A9C6" cx="472.7" cy="473.8" rx="25.6" ry="25.8"/>
<ellipse fill="#51A9C6" cx="25.6" cy="46.8" rx="25.6" ry="25.8"/>
<ellipse fill="#51A9C6" cx="99.8" cy="46.8" rx="25.6" ry="25.8"/>
<ellipse fill="#51A9C6" cx="174.1" cy="46.8" rx="25.6" ry="25.8"/>
<ellipse fill="#51A9C6" cx="248.2" cy="46.8" rx="25.6" ry="25.8"/>
<ellipse fill="#51A9C6" cx="25.6" cy="111.1" rx="25.6" ry="25.8"/>
<ellipse fill="#51A9C6" cx="99.8" cy="111.1" rx="25.6" ry="25.8"/>
<ellipse fill="#51A9C6" cx="174.1" cy="111.1" rx="25.6" ry="25.8"/>
<ellipse fill="#51A9C6" cx="248.2" cy="111.1" rx="25.6" ry="25.8"/>
<ellipse fill="#51A9C6" cx="26.6" cy="376" rx="25.6" ry="25.8"/>
<ellipse fill="#51A9C6" cx="100.8" cy="376" rx="25.6" ry="25.8"/>
<ellipse fill="#51A9C6" cx="175.1" cy="376" rx="25.6" ry="25.8"/>
<ellipse fill="#51A9C6" cx="249.2" cy="376" rx="25.6" ry="25.8"/>
<ellipse fill="#51A9C6" cx="323.4" cy="376" rx="25.6" ry="25.8"/>
<ellipse fill="#51A9C6" cx="397.5" cy="376" rx="25.6" ry="25.8"/>
<ellipse fill="#51A9C6" cx="471.9" cy="376" rx="25.6" ry="25.8"/>
<ellipse fill="#51A9C6" cx="27.3" cy="316.4" rx="25.6" ry="25.8"/>
<ellipse fill="#51A9C6" cx="101.5" cy="316.4" rx="25.6" ry="25.8"/>
<ellipse fill="#51A9C6" cx="175.8" cy="316.4" rx="25.6" ry="25.8"/>
<ellipse fill="#51A9C6" cx="250" cy="316.4" rx="25.6" ry="25.8"/>
<ellipse fill="#51A9C6" cx="324.2" cy="316.4" rx="25.6" ry="25.8"/>
<ellipse fill="#51A9C6" cx="398.3" cy="316.4" rx="25.6" ry="25.8"/>
<ellipse fill="#51A9C6" cx="472.7" cy="316.4" rx="25.6" ry="25.8"/>
<ellipse fill="#51A9C6" cx="26.6" cy="249.9" rx="25.6" ry="25.8"/>
<ellipse fill="#51A9C6" cx="100.8" cy="249.9" rx="25.6" ry="25.8"/>
<ellipse fill="#51A9C6" cx="175.1" cy="249.9" rx="25.6" ry="25.8"/>
<ellipse fill="#51A9C6" cx="249.2" cy="249.9" rx="25.6" ry="25.8"/>
<ellipse fill="#51A9C6" cx="323.4" cy="249.9" rx="25.6" ry="25.8"/>
<ellipse fill="#51A9C6" cx="397.5" cy="249.9" rx="25.6" ry="25.8"/>
<ellipse fill="#51A9C6" cx="471.9" cy="249.9" rx="25.6" ry="25.8"/>
</svg>
