<?xml version="1.0" encoding="utf-8"?>
<!-- Generator: Adobe Illustrator 18.1.1, SVG Export Plug-In . SVG Version: 6.00 Build 0)  -->
<svg version="1.1" id="Layer_1" xmlns="http://www.w3.org/2000/svg" xmlns:xlink="http://www.w3.org/1999/xlink" x="0px" y="0px"
	 viewBox="0 0 500 500" enable-background="new 0 0 500 500" xml:space="preserve">
<rect x="343.3" y="232.3" fill="#51A9C6" width="51.6" height="51.6"/>
<rect x="166" y="149.3" fill="#51A9C6" width="51.6" height="51.6"/>
<rect x="342.3" y="448.6" fill="#51A9C6" width="51.6" height="51.6"/>
<rect x="342.3" y="373.8" fill="#51A9C6" width="51.6" height="51.6"/>
<rect x="342.3" y="298.9" fill="#51A9C6" width="51.6" height="51.6"/>
<rect x="250" y="149.3" fill="#51A9C6" width="51.6" height="51.6"/>
<rect x="342.3" y="149.3" fill="#51A9C6" width="51.6" height="51.6"/>
<rect x="342.3" y="74.4" fill="#51A9C6" width="51.6" height="51.6"/>
<rect x="342.3" y="-0.4" fill="#51A9C6" width="51.6" height="51.6"/>
<circle fill="#51A9C6" cx="275.8" cy="474.4" r="25.8"/>
<circle fill="#51A9C6" cx="275.8" cy="399.6" r="25.8"/>
<circle fill="#51A9C6" cx="275.8" cy="324.7" r="25.8"/>
<circle fill="#51A9C6" cx="275.8" cy="249.9" r="25.8"/>
<circle fill="#51A9C6" cx="275.8" cy="100.4" r="25.8"/>
<circle fill="#51A9C6" cx="275.8" cy="25.4" r="25.8"/>
<circle fill="#51A9C6" cx="191.8" cy="474.4" r="25.8"/>
<circle fill="#51A9C6" cx="191.8" cy="399.6" r="25.8"/>
<circle fill="#51A9C6" cx="191.8" cy="324.7" r="25.8"/>
<circle fill="#51A9C6" cx="191.8" cy="249.9" r="25.8"/>
<circle fill="#51A9C6" cx="191.8" cy="100.4" r="25.8"/>
<circle fill="#51A9C6" cx="191.8" cy="25.4" r="25.8"/>
<circle fill="#51A9C6" cx="455.8" cy="474.4" r="25.8"/>
<circle fill="#51A9C6" cx="455.8" cy="399.6" r="25.8"/>
<circle fill="#51A9C6" cx="455.8" cy="324.7" r="25.8"/>
<circle fill="#51A9C6" cx="455.8" cy="249.9" r="25.8"/>
<circle fill="#51A9C6" cx="455.8" cy="175.1" r="25.8"/>
<circle fill="#51A9C6" cx="455.8" cy="100.4" r="25.8"/>
<circle fill="#51A9C6" cx="455.8" cy="25.4" r="25.8"/>
<circle fill="#51A9C6" cx="106.8" cy="474.4" r="25.8"/>
<circle fill="#51A9C6" cx="106.8" cy="399.6" r="25.8"/>
<circle fill="#51A9C6" cx="106.8" cy="324.7" r="25.8"/>
<circle fill="#51A9C6" cx="106.8" cy="249.9" r="25.8"/>
<circle fill="#51A9C6" cx="106.8" cy="175.1" r="25.8"/>
<circle fill="#51A9C6" cx="106.8" cy="100.4" r="25.8"/>
<circle fill="#51A9C6" cx="106.8" cy="25.4" r="25.8"/>
<circle fill="#51A9C6" cx="26.8" cy="474.4" r="25.8"/>
<circle fill="#51A9C6" cx="26.8" cy="399.6" r="25.8"/>
<circle fill="#51A9C6" cx="26.8" cy="324.7" r="25.8"/>
<circle fill="#51A9C6" cx="26.8" cy="249.9" r="25.8"/>
<circle fill="#51A9C6" cx="26.8" cy="175.1" r="25.8"/>
<circle fill="#51A9C6" cx="26.8" cy="100.4" r="25.8"/>
<circle fill="#51A9C6" cx="26.8" cy="25.4" r="25.8"/>
</svg>
