<?xml version="1.0" encoding="utf-8"?>
<!-- Generator: Adobe Illustrator 18.1.1, SVG Export Plug-In . SVG Version: 6.00 Build 0)  -->
<svg version="1.1" id="Layer_1" xmlns="http://www.w3.org/2000/svg" xmlns:xlink="http://www.w3.org/1999/xlink" x="0px" y="0px"
	 viewBox="0 0 500 500" enable-background="new 0 0 500 500" xml:space="preserve">
<g>
	<g>
		<g>
			<line fill="#51A9C6" stroke="#51A9C6" stroke-width="10" stroke-miterlimit="10" x1="320" y1="495" x2="277" y2="495"/>
			<line fill="#51A9C6" stroke="#51A9C6" stroke-width="10" stroke-miterlimit="10" x1="321" y1="380" x2="321" y2="500"/>
			<line fill="#51A9C6" stroke="#51A9C6" stroke-width="10" stroke-miterlimit="10" x1="277" y1="385" x2="320" y2="385"/>
		</g>
		<g>
			<line fill="#51A9C6" stroke="#51A9C6" stroke-width="10" stroke-miterlimit="10" x1="320" y1="305" x2="277" y2="305"/>
			<line fill="#51A9C6" stroke="#51A9C6" stroke-width="10" stroke-miterlimit="10" x1="321" y1="190" x2="321" y2="310"/>
			<line fill="#51A9C6" stroke="#51A9C6" stroke-width="10" stroke-miterlimit="10" x1="277" y1="195" x2="320" y2="195"/>
		</g>
		<g>
			<line fill="#51A9C6" stroke="#51A9C6" stroke-width="10" stroke-miterlimit="10" x1="320" y1="115" x2="277" y2="115"/>
			<line fill="#51A9C6" stroke="#51A9C6" stroke-width="10" stroke-miterlimit="10" x1="321" y1="0" x2="321" y2="120"/>
			<line fill="#51A9C6" stroke="#51A9C6" stroke-width="10" stroke-miterlimit="10" x1="277" y1="5" x2="320" y2="5"/>
		</g>
	</g>
	<g>
		<g>
			<line fill="#51A9C6" stroke="#51A9C6" stroke-width="10" stroke-miterlimit="10" x1="180" y1="495" x2="223" y2="495"/>
			<line fill="#51A9C6" stroke="#51A9C6" stroke-width="10" stroke-miterlimit="10" x1="179" y1="380" x2="179" y2="500"/>
			<line fill="#51A9C6" stroke="#51A9C6" stroke-width="10" stroke-miterlimit="10" x1="223" y1="385" x2="180" y2="385"/>
		</g>
		<g>
			<line fill="#51A9C6" stroke="#51A9C6" stroke-width="10" stroke-miterlimit="10" x1="180" y1="305" x2="223" y2="305"/>
			<line fill="#51A9C6" stroke="#51A9C6" stroke-width="10" stroke-miterlimit="10" x1="179" y1="190" x2="179" y2="310"/>
			<line fill="#51A9C6" stroke="#51A9C6" stroke-width="10" stroke-miterlimit="10" x1="223" y1="195" x2="180" y2="195"/>
		</g>
		<g>
			<line fill="#51A9C6" stroke="#51A9C6" stroke-width="10" stroke-miterlimit="10" x1="180" y1="115" x2="223" y2="115"/>
			<line fill="#51A9C6" stroke="#51A9C6" stroke-width="10" stroke-miterlimit="10" x1="179" y1="0" x2="179" y2="120"/>
			<line fill="#51A9C6" stroke="#51A9C6" stroke-width="10" stroke-miterlimit="10" x1="223" y1="5" x2="180" y2="5"/>
		</g>
	</g>
</g>
<g>
	<g>
		<g>
			<line fill="#51A9C6" stroke="#51A9C6" stroke-width="10" stroke-miterlimit="10" x1="494" y1="495" x2="451" y2="495"/>
			<line fill="#51A9C6" stroke="#51A9C6" stroke-width="10" stroke-miterlimit="10" x1="495" y1="380" x2="495" y2="500"/>
			<line fill="#51A9C6" stroke="#51A9C6" stroke-width="10" stroke-miterlimit="10" x1="451" y1="385" x2="494" y2="385"/>
		</g>
		<g>
			<line fill="#51A9C6" stroke="#51A9C6" stroke-width="10" stroke-miterlimit="10" x1="494" y1="305" x2="451" y2="305"/>
			<line fill="#51A9C6" stroke="#51A9C6" stroke-width="10" stroke-miterlimit="10" x1="495" y1="190" x2="495" y2="310"/>
			<line fill="#51A9C6" stroke="#51A9C6" stroke-width="10" stroke-miterlimit="10" x1="451" y1="195" x2="494" y2="195"/>
		</g>
		<g>
			<line fill="#51A9C6" stroke="#51A9C6" stroke-width="10" stroke-miterlimit="10" x1="494" y1="115" x2="451" y2="115"/>
			<line fill="#51A9C6" stroke="#51A9C6" stroke-width="10" stroke-miterlimit="10" x1="495" y1="0" x2="495" y2="120"/>
			<line fill="#51A9C6" stroke="#51A9C6" stroke-width="10" stroke-miterlimit="10" x1="451" y1="5" x2="494" y2="5"/>
		</g>
	</g>
	<g>
		<g>
			<line fill="#51A9C6" stroke="#51A9C6" stroke-width="10" stroke-miterlimit="10" x1="354" y1="495" x2="397" y2="495"/>
			<line fill="#51A9C6" stroke="#51A9C6" stroke-width="10" stroke-miterlimit="10" x1="353" y1="380" x2="353" y2="500"/>
			<line fill="#51A9C6" stroke="#51A9C6" stroke-width="10" stroke-miterlimit="10" x1="397" y1="385" x2="354" y2="385"/>
		</g>
		<g>
			<line fill="#51A9C6" stroke="#51A9C6" stroke-width="10" stroke-miterlimit="10" x1="354" y1="305" x2="397" y2="305"/>
			<line fill="#51A9C6" stroke="#51A9C6" stroke-width="10" stroke-miterlimit="10" x1="353" y1="190" x2="353" y2="310"/>
			<line fill="#51A9C6" stroke="#51A9C6" stroke-width="10" stroke-miterlimit="10" x1="397" y1="195" x2="354" y2="195"/>
		</g>
		<g>
			<line fill="#51A9C6" stroke="#51A9C6" stroke-width="10" stroke-miterlimit="10" x1="354" y1="115" x2="397" y2="115"/>
			<line fill="#51A9C6" stroke="#51A9C6" stroke-width="10" stroke-miterlimit="10" x1="353" y1="0" x2="353" y2="120"/>
			<line fill="#51A9C6" stroke="#51A9C6" stroke-width="10" stroke-miterlimit="10" x1="397" y1="5" x2="354" y2="5"/>
		</g>
	</g>
</g>
<g>
	<g>
		<g>
			<line fill="#51A9C6" stroke="#51A9C6" stroke-width="10" stroke-miterlimit="10" x1="494" y1="495" x2="451" y2="495"/>
			<line fill="#51A9C6" stroke="#51A9C6" stroke-width="10" stroke-miterlimit="10" x1="495" y1="380" x2="495" y2="500"/>
			<line fill="#51A9C6" stroke="#51A9C6" stroke-width="10" stroke-miterlimit="10" x1="451" y1="385" x2="494" y2="385"/>
		</g>
		<g>
			<line fill="#51A9C6" stroke="#51A9C6" stroke-width="10" stroke-miterlimit="10" x1="494" y1="305" x2="451" y2="305"/>
			<line fill="#51A9C6" stroke="#51A9C6" stroke-width="10" stroke-miterlimit="10" x1="495" y1="190" x2="495" y2="310"/>
			<line fill="#51A9C6" stroke="#51A9C6" stroke-width="10" stroke-miterlimit="10" x1="451" y1="195" x2="494" y2="195"/>
		</g>
		<g>
			<line fill="#51A9C6" stroke="#51A9C6" stroke-width="10" stroke-miterlimit="10" x1="494" y1="115" x2="451" y2="115"/>
			<line fill="#51A9C6" stroke="#51A9C6" stroke-width="10" stroke-miterlimit="10" x1="495" y1="0" x2="495" y2="120"/>
			<line fill="#51A9C6" stroke="#51A9C6" stroke-width="10" stroke-miterlimit="10" x1="451" y1="5" x2="494" y2="5"/>
		</g>
	</g>
	<g>
		<g>
			<line fill="#51A9C6" stroke="#51A9C6" stroke-width="10" stroke-miterlimit="10" x1="354" y1="495" x2="397" y2="495"/>
			<line fill="#51A9C6" stroke="#51A9C6" stroke-width="10" stroke-miterlimit="10" x1="353" y1="380" x2="353" y2="500"/>
			<line fill="#51A9C6" stroke="#51A9C6" stroke-width="10" stroke-miterlimit="10" x1="397" y1="385" x2="354" y2="385"/>
		</g>
		<g>
			<line fill="#51A9C6" stroke="#51A9C6" stroke-width="10" stroke-miterlimit="10" x1="354" y1="305" x2="397" y2="305"/>
			<line fill="#51A9C6" stroke="#51A9C6" stroke-width="10" stroke-miterlimit="10" x1="353" y1="190" x2="353" y2="310"/>
			<line fill="#51A9C6" stroke="#51A9C6" stroke-width="10" stroke-miterlimit="10" x1="397" y1="195" x2="354" y2="195"/>
		</g>
		<g>
			<line fill="#51A9C6" stroke="#51A9C6" stroke-width="10" stroke-miterlimit="10" x1="354" y1="115" x2="397" y2="115"/>
			<line fill="#51A9C6" stroke="#51A9C6" stroke-width="10" stroke-miterlimit="10" x1="353" y1="0" x2="353" y2="120"/>
			<line fill="#51A9C6" stroke="#51A9C6" stroke-width="10" stroke-miterlimit="10" x1="397" y1="5" x2="354" y2="5"/>
		</g>
	</g>
</g>
<g>
	<g>
		<g>
			<line fill="#51A9C6" stroke="#51A9C6" stroke-width="10" stroke-miterlimit="10" x1="146" y1="495" x2="103" y2="495"/>
			<line fill="#51A9C6" stroke="#51A9C6" stroke-width="10" stroke-miterlimit="10" x1="147" y1="380" x2="147" y2="500"/>
			<line fill="#51A9C6" stroke="#51A9C6" stroke-width="10" stroke-miterlimit="10" x1="103" y1="385" x2="146" y2="385"/>
		</g>
		<g>
			<line fill="#51A9C6" stroke="#51A9C6" stroke-width="10" stroke-miterlimit="10" x1="146" y1="305" x2="103" y2="305"/>
			<line fill="#51A9C6" stroke="#51A9C6" stroke-width="10" stroke-miterlimit="10" x1="147" y1="190" x2="147" y2="310"/>
			<line fill="#51A9C6" stroke="#51A9C6" stroke-width="10" stroke-miterlimit="10" x1="103" y1="195" x2="146" y2="195"/>
		</g>
		<g>
			<line fill="#51A9C6" stroke="#51A9C6" stroke-width="10" stroke-miterlimit="10" x1="146" y1="115" x2="103" y2="115"/>
			<line fill="#51A9C6" stroke="#51A9C6" stroke-width="10" stroke-miterlimit="10" x1="147" y1="0" x2="147" y2="120"/>
			<line fill="#51A9C6" stroke="#51A9C6" stroke-width="10" stroke-miterlimit="10" x1="103" y1="5" x2="146" y2="5"/>
		</g>
	</g>
	<g>
		<g>
			<line fill="#51A9C6" stroke="#51A9C6" stroke-width="10" stroke-miterlimit="10" x1="6" y1="495" x2="49" y2="495"/>
			<line fill="#51A9C6" stroke="#51A9C6" stroke-width="10" stroke-miterlimit="10" x1="5" y1="380" x2="5" y2="500"/>
			<line fill="#51A9C6" stroke="#51A9C6" stroke-width="10" stroke-miterlimit="10" x1="49" y1="385" x2="6" y2="385"/>
		</g>
		<g>
			<line fill="#51A9C6" stroke="#51A9C6" stroke-width="10" stroke-miterlimit="10" x1="6" y1="305" x2="49" y2="305"/>
			<line fill="#51A9C6" stroke="#51A9C6" stroke-width="10" stroke-miterlimit="10" x1="5" y1="190" x2="5" y2="310"/>
			<line fill="#51A9C6" stroke="#51A9C6" stroke-width="10" stroke-miterlimit="10" x1="49" y1="195" x2="6" y2="195"/>
		</g>
		<g>
			<line fill="#51A9C6" stroke="#51A9C6" stroke-width="10" stroke-miterlimit="10" x1="6" y1="115" x2="49" y2="115"/>
			<line fill="#51A9C6" stroke="#51A9C6" stroke-width="10" stroke-miterlimit="10" x1="5" y1="0" x2="5" y2="120"/>
			<line fill="#51A9C6" stroke="#51A9C6" stroke-width="10" stroke-miterlimit="10" x1="49" y1="5" x2="6" y2="5"/>
		</g>
	</g>
</g>
</svg>
