<?xml version="1.0" encoding="utf-8"?>
<!-- Generator: Adobe Illustrator 18.1.1, SVG Export Plug-In . SVG Version: 6.00 Build 0)  -->
<svg version="1.1" id="Layer_1" xmlns="http://www.w3.org/2000/svg" xmlns:xlink="http://www.w3.org/1999/xlink" x="0px" y="0px"
	 viewBox="0 0 500 500" enable-background="new 0 0 500 500" xml:space="preserve">
<g id="ckwgh4_1_">
	<g>
		<g>
			<path fill="#EC1D23" d="M502.2,156.8c0,6.1,0,12.1,0,18.2c-1.5,24.8-7.3,48.2-19.5,69.8c-16.1,28.4-37.6,50.8-66.2,65.4
				c-3.3,1.7-6.5,3.5-10.4,2.7c-8.8-4.5-5.2-15.1-9.9-21.6c-2-3-1.5-6.8-3.1-9.9c-2.8-9.4-6.7-18.2-12.8-25.7
				c-14-16.8-27.7-33.8-45.3-46.9c-8.3-6.2-19-7.6-26.2-15.6c-0.5-1-0.9-2.1-1.1-3.3c-0.8-4.9,0.2-9.5,2.2-13.9c2.7-9,2.1-18,0.5-27
				c-4.2-15.6-6.6-31.7-12.9-46.8c-10.5-25.4-27.8-45-46.9-63.4c-0.4-1.2-0.3-2.3,0.1-3.5c19-17.7,41.3-28,66.7-30.7
				c4.6-0.5,9.3-0.6,13.9-1.2c9,0,18,0,27,0c21.3,0.3,41.5,4.8,60.5,15.6c40.8,23.1,67.5,57.6,79.5,104.3
				C501,134.4,499.6,145.9,502.2,156.8z"/>
			<path fill="#FEFEFE" d="M406.7,311.5c54.4-25,84.2-69.2,93.1-129.6c0.4-2.4-0.9-5.5,2.3-6.9c0,106.2-0.1,212.5,0.2,318.7
				c0,6.9-1.3,8.8-8.3,8.8c-76.6-0.3-153.3-0.2-229.9-0.2c-0.7-1.1-0.6-2.2,0.3-3.1c9.8-4.1,20.5-4.3,30.6-7.8
				c58.4-20.6,93.5-62.2,106-125.1c3.4-17.3,1-34.5,1.4-51.8C403.4,312.6,405.1,312.1,406.7,311.5z"/>
			<path fill="#FEFEFE" d="M235.8,502.3c-75.2,0-150.4-0.1-225.5,0.2c-7,0-8.3-1.9-8.3-8.8C2.3,389,2.2,284.3,2.2,179.5
				c1-0.8,2-0.7,2.9,0.2c2.8,5,3,10.8,4.1,16.3c10.2,49,36.6,85.1,79.2,108.3c3.8,2.1,8.1,3.4,10.9,7.2c2,3.9,1.4,8,1,12.2
				C95,384.1,116.7,432,162.7,468.2c18.1,14.3,38.6,23.8,61.4,27.5c3.9,0.6,7.9,1.1,11.4,3.4C236.4,500.1,236.5,501.1,235.8,502.3z"
				/>
			<path fill="#FEFEFE" d="M502.2,156.8c-4.8-14.8-4.9-30.7-10.3-45.6C471.9,56.2,434.4,22.2,380,7.2c-6.7-1.8-13.7,2.2-19.8-2.3
				c-1.2-0.9-1.2-1.8,0.1-2.6c45.1,0,90.2,0.1,135.4-0.2c5.5,0,6.7,1.3,6.7,7C502.1,58.3,502.2,107.6,502.2,156.8z"/>
			<path fill="#FEFEFE" d="M2.2,147.7C2.2,101.5,2.3,55.3,2,9.1c0-5.7,1.2-7,6.7-7c44.4,0.3,88.8,0.2,133.2,0.2
				c0.8,1.1,0.7,2.1-0.2,3.1c-6.1,4-13.3,3.3-19.9,5.3C62.3,28.5,24.2,68.1,9.3,131.1c-1.3,5.5-1.4,11.3-4.2,16.4
				C4.2,148.4,3.2,148.5,2.2,147.7z"/>
			<path fill="#FCFDFD" d="M329.5,4.1c-5.8,5.3-13.1,1.5-19.6,3.4c-21,6.1-40.6,15.1-58.1,28.8c-3,0.4-5.7-0.7-8.1-2.4
				c-19.6-14.2-41.4-22.3-64.9-26.2c-2.1-0.4-4.2-0.9-6-2.3c-0.9-1-1-2-0.3-3.1c52.4,0,104.8,0,157.2,0c0.8,0.5,1,1,0.7,1.3
				C330.1,4,329.8,4.1,329.5,4.1z"/>
			<path fill="#C0C1BA" d="M2.2,147.7c0.6-0.2,1.2-0.3,1.9-0.3c5.7,10.8,5.7,21.6,0,32.4c-0.6,0-1.3-0.1-1.9-0.3
				C2.2,168.9,2.2,158.3,2.2,147.7z"/>
			<path fill="#C1C8BF" d="M329.5,4.1c0.1-0.6,0.1-1.2,0.2-1.9c10.2,0,20.4,0,30.6,0c0,0.9,0,1.7-0.1,2.6
				C350,4.6,339.7,4.4,329.5,4.1z"/>
			<path fill="#C1C2BB" d="M172.5,2.3c0.1,0.6,0.2,1.3,0.3,1.9c-10.4,6-20.7,5.9-31.1,0c0.2-0.6,0.2-1.3,0.2-2
				C152.1,2.3,162.3,2.3,172.5,2.3z"/>
			<path fill="#C1C5C8" d="M235.8,502.3c0-0.6-0.1-1.2-0.2-1.9c9.6-6,19.2-6.1,28.8,0.1c0,0.6,0,1.2-0.2,1.8
				C254.7,502.3,245.3,502.3,235.8,502.3z"/>
			<path fill="#01A550" d="M141.7,4.2c10.4,0,20.7,0,31.1,0c29.3,2.9,55.6,13.5,79,32.1c0,0.6,0.1,1.2,0.3,1.8
				c-4.3,9.1-13.3,13.6-19.4,21C201.2,97,190.6,141,196,189.9c0,1.2-0.3,2.3-0.9,3.3c-19.7,11.2-39.2,22.5-54.7,40.2
				c-17.5,20-30.1,42.4-36.1,68.7c-0.7,3.3-1.2,6.7-3.4,9.5c-1,0.8-2,0.9-3,0.3c-55.5-25.3-86.3-69.8-93.9-132.1
				c0-10.8,0-21.6,0-32.4C10.8,73,67.9,13.5,141.7,4.2z"/>
			<path fill="#FDF002" d="M194.9,190.7c-5.7-19.2-4.2-38.8-0.3-57.9c7.9-38.8,25.8-71.4,57.5-94.8c31.8,24.2,49.5,57.5,57.8,97
				c0.8,4,1.5,8.1,2.3,12.1c1.9,10.1,1.6,20.3,0.2,30.5c-3.9,3.9-1.5,9.2-3,13.7c-7.8,2.6-14.4-2.4-21.6-3.7
				c-5.9-1.1-11.8-2.6-17.7-3.7c-11.2-2-22.5-1.9-33.7,0c-10.6,1.6-21.2,3.3-31.4,6.8C201.7,191.9,198.2,193.7,194.9,190.7z"/>
			<path fill="#EE018C" d="M395,282.1c0.6,2.2,1.3,4.4,1.9,6.6c2.9,8.5,7.3,16.8,4,26.4c-18.3,11-38.7,13-58.9,12.6
				c-25.7-0.6-50.3-7.6-73-20.7c-6.3-3.7-12.9-7.2-16.6-14.2c-1-5.1,2.9-7.3,5.7-10.1c22.6-21.8,38.7-47.7,46.5-78.9
				c1-3.9,1.5-8.3,5.6-10.5c26.9,9.3,46.7,28.2,63.7,50.9c2.7,3.5,5.6,6.9,8.4,10.3C386.4,263.9,392.1,272.3,395,282.1z"/>
			<path fill="#FEFEFE" d="M310.3,193.4c-8.3,39.3-27,71.9-57,97.4c-0.8,0.9-1.7,1.4-2.9,1.4c-10.3-3.4-16.1-12.4-22.6-20.4
				C212,252.2,199.1,231,194,205.6c-0.8-3.9-2.8-7.9-0.1-12c0.3-1,0.7-1.9,1-2.9c13.3-4.5,26.6-9.2,40.9-9.1
				c11.9-1.3,23.9-1.6,35.8,0.2c13.2,0.7,25.4,5.6,37.8,9.5C309.7,192,310,192.7,310.3,193.4z"/>
			<path fill="#B93152" d="M395,282.1c-4.6-9-11.1-17-12.7-27.5C389.3,262.4,393.7,271.5,395,282.1z"/>
			<path fill="#BB2E5E" d="M399.6,313.8c3.8-8.9-3.2-16.6-2.7-25.1c4.8,2.7,4,7.9,5.1,12.3c0.9,3.7,0.9,8.1,4.7,10.5
				c-0.9,0.7-1.8,1.4-2.6,2.1C402.6,315,401.2,315.1,399.6,313.8z"/>
			<path fill="#B91F46" d="M312.4,177.6c-0.1-10.1-0.1-20.3-0.2-30.4C315.9,157.3,315.5,167.5,312.4,177.6z"/>
			<path fill="#2D3193" d="M399.6,313.8c1.5,0,3-0.1,4.5-0.1c8.3,63.8-11.7,116-60.6,155.5c-23.1,18.7-49.8,28.9-79.2,31.3
				c-9.6,0-19.2-0.1-28.8-0.1C150.4,492.8,86.5,409.7,97.5,321c0.4-3,0.3-6,0.5-9c0.8-0.3,1.6-0.6,2.3-0.9
				c17.4,3.2,34.2,8.7,52.4,9.3c30.4,0.9,58.3-5.8,84.1-22.4c4.3-2.8,8.4-6,13.6-7c1,0,2,0,3-0.1c14.9,15.8,34.2,22.9,54.1,28.4
				C338.6,327.9,369.4,326.2,399.6,313.8z"/>
			<path fill="#00ACF0" d="M250.3,290.8c-19.9,19-44.3,27.7-70.2,31.6c-24.5,3.6-48.9,1.4-72.6-6.8c-2.7-0.9-5.6-1.7-7.2-4.6
				c5.9-40.6,26.5-72,56.7-97c10.9-9,22.4-17.8,36.8-20.3C201.4,233.1,220.8,265.1,250.3,290.8z"/>
			<path fill="#C3B1BC" d="M271.6,181.8c-11.9-0.1-23.9-0.1-35.8-0.2C247.7,177.8,259.6,178.6,271.6,181.8z"/>
		</g>
	</g>
</g>
<g>
</g>
<g>
</g>
<g>
</g>
<g>
</g>
<g>
</g>
<g>
</g>
<g>
</g>
<g>
</g>
<g>
</g>
<g>
</g>
<g>
</g>
<g>
</g>
<g>
</g>
<g>
</g>
<g>
</g>
</svg>
